PathFileType	4	(X/Y/Z)	C:\Users\Basilio\Documents\Thesis Gigler\squatting_fais\c3dfiles\073\SLS_front_pre2\markers_experimental.trc
DataRate	CameraRate	NumFrames	NumMarkers	Units	OrigDataRate	OrigDataStartFrame	OrigNumFrames
200.000000	200.000000	4	61	mm	200.000000	332	1328
Frame#	Time	FHD			LBHD			RBHD			C7			T10			CLAV			LSHO			LUUPA			LMUPA			LDUPA			LLEP			LMEP			LRAD			LUL			LRFIN			RSHO			RUPA1			RMUPA			RDUPA			RLEP			RMEP			RRAD			RUL			RUFIN			LASI			RASI			USACR			LSACR			RSACR			LTHI1			LTHI2			LTHI3			LTHI4			LLFC			LMFC			LTIB1			LTIB2			LTIB3			LTIB4			LLMAL			LMMAL			LHEE			LMT1			LMT2			LMT5			RTHI			RTHI2			RTHI3			RTHI4			RLFC			RMFC			RTIB1			RTIB2			RTIB3			RTIB4			RLMAL			RMMAL			RHEE			RMT1			RMT2			RMT5			
		X1	Y1	Z1	X2	Y2	Z2	X3	Y3	Z3	X4	Y4	Z4	X5	Y5	Z5	X6	Y6	Z6	X7	Y7	Z7	X8	Y8	Z8	X9	Y9	Z9	X10	Y10	Z10	X11	Y11	Z11	X12	Y12	Z12	X13	Y13	Z13	X14	Y14	Z14	X15	Y15	Z15	X16	Y16	Z16	X17	Y17	Z17	X18	Y18	Z18	X19	Y19	Z19	X20	Y20	Z20	X21	Y21	Z21	X22	Y22	Z22	X23	Y23	Z23	X24	Y24	Z24	X25	Y25	Z25	X26	Y26	Z26	X27	Y27	Z27	X28	Y28	Z28	X29	Y29	Z29	X30	Y30	Z30	X31	Y31	Z31	X32	Y32	Z32	X33	Y33	Z33	X34	Y34	Z34	X35	Y35	Z35	X36	Y36	Z36	X37	Y37	Z37	X38	Y38	Z38	X39	Y39	Z39	X40	Y40	Z40	X41	Y41	Z41	X42	Y42	Z42	X43	Y43	Z43	X44	Y44	Z44	X45	Y45	Z45	X46	Y46	Z46	X47	Y47	Z47	X48	Y48	Z48	X49	Y49	Z49	X50	Y50	Z50	X51	Y51	Z51	X52	Y52	Z52	X53	Y53	Z53	X54	Y54	Z54	X55	Y55	Z55	X56	Y56	Z56	X57	Y57	Z57	X58	Y58	Z58	X59	Y59	Z59	X60	Y60	Z60	X61	Y61	Z61	

333	1.66	-233.8934783935547	1673.796630859375	-777.950134277344	-368.5401306152344	1645.45849609375	-806.2301025390627	-395.1776733398439	1625.681030273438	-673.6718750000001	-429.198944091797	1528.45703125	-737.6548461914064	-501.4566650390626	1196.552001953125	-742.9064941406251	-310.5927124023438	1436.75927734375	-739.1709594726564	-334.2442626953126	1475.859252929688	-890.369079589844	-260.2045288085938	1382.048095703125	-977.7524414062502	-216.651351928711	1397.912231445313	-957.433532714844	-201.7321929931641	1345.932983398438	-986.3208007812502	-101.9098739624024	1307.269775390625	-988.6145019531252	-113.2845458984375	1253.767944335938	-941.6503906250002	155.582748413086	1304.952514648438	-870.4160156250002	160.1450805664063	1299.065673828125	-944.4529418945315	238.8162841796876	1306.053588867188	-863.480163574219	-320.5946960449219	1466.726684570313	-588.7861938476564	-237.1735839843751	1351.063354492188	-496.9900512695314	-195.7154235839844	1368.806640625	-513.4542846679689	-177.914047241211	1315.68701171875	-492.5424804687501	-88.61085510253908	1287.942138671875	-494.7770385742189	-100.8612442016602	1234.807739257813	-557.4620971679689	157.4675598144532	1296.7705078125	-631.2622070312501	172.2823028564453	1303.737670898438	-555.4005737304689	247.2102355957032	1315.005737304688	-640.2271728515626	-342.4212036132813	1048.52783203125	-884.8353271484377	-331.8988647460938	1018.339782714844	-634.0844116210939	-521.8597412109376	1080.656860351563	-747.6418457031251	-532.4202880859376	1053.826171875	-778.6387939453127	-532.6243286132814	1045.995849609375	-722.9117431640626	-234.1703186035157	783.588073730469	-944.0098266601565	-163.772689819336	741.6845092773439	-923.0582275390627	-136.4750061035157	766.8420410156251	-889.5136718750002	-156.8188934326172	683.0107421875001	-916.0208740234377	-124.2560119628907	632.1583251953126	-915.8401489257815	-129.1386108398438	622.6954345703126	-776.6680297851565	31.35579299926759	500.3417968750001	-864.029724121094	8.909729957580568	432.8572998046876	-916.1896972656252	45.91908645629884	451.7803039550782	-895.304138183594	93.71395111083986	390.175262451172	-860.989440917969	113.4413604736328	257.4357910156251	-884.1578369140627	109.5184173583985	283.9049987792969	-800.5601196289065	86.9527053833008	197.1064758300782	-839.3294677734377	271.2557678222657	324.9400939941407	-806.3960571289065	270.5276184082032	325.6907653808594	-844.9511718750002	254.8500671386719	285.3302917480469	-897.0972290039065	-384.6155090332032	776.7888183593752	-586.6163330078126	-338.2385253906251	729.8067626953126	-585.3524780273439	-305.4365844726563	738.7266845703126	-584.9833984375001	-345.1351013183594	651.0701904296876	-612.7576293945314	-302.1546630859376	508.900115966797	-632.9855957031251	-283.7451171875001	511.215057373047	-761.7028808593751	-267.1718750000001	353.0783691406251	-734.6658935546876	-304.4482421875001	268.2221069335938	-678.6359863281251	-277.2185363769532	267.8164978027344	-718.8338623046876	-299.4545898437501	229.4812774658204	-756.8587646484376	-365.2682800292969	99.63427734375003	-720.0300903320314	-352.2904052734376	132.0498504638672	-803.8645629882815	-433.5506286621095	83.89517974853517	-781.317321777344	-208.7913513183594	56.3466148376465	-785.181823730469	-210.9472045898438	51.59592056274415	-744.3627929687501	-256.5962829589844	33.19504165649415	-698.8120117187501	
334	1.665	-233.7033691406251	1673.048583984375	-777.9104003906252	-368.2640075683594	1644.830322265625	-806.192321777344	-394.9369201660157	1625.100952148438	-673.5926513671876	-428.9978027343751	1527.97607421875	-737.5963745117189	-501.8365783691407	1196.234985351563	-742.9952392578126	-310.5524291992188	1436.236328125	-739.0893554687501	-334.0531616210938	1475.261352539063	-890.2517700195315	-259.7935180664063	1381.563720703125	-977.1651000976565	-216.4309234619141	1397.310791015625	-957.350280761719	-201.4952392578126	1345.37841796875	-986.1878662109377	-101.6426162719727	1306.71337890625	-988.5249633789065	-113.0812759399414	1253.224975585938	-941.5142211914065	155.866455078125	1304.385498046875	-870.2236328125002	160.3671875	1298.533935546875	-944.2672119140627	238.4311218261719	1305.59033203125	-863.1385498046877	-320.4620056152344	1466.178833007813	-588.7503662109376	-237.1560211181641	1350.50048828125	-496.895721435547	-195.6940307617188	1368.250244140625	-513.3422851562501	-177.8675842285157	1315.184936523438	-492.4091186523439	-88.52555084228517	1287.3994140625	-494.4857788085939	-100.7800369262696	1234.239624023438	-557.2699584960939	157.5076293945313	1296.28662109375	-630.8972778320314	172.3362579345703	1303.114501953125	-555.1208496093751	247.3098907470704	1314.334838867188	-640.0300292968751	-342.9960021972657	1048.017578125	-884.7943115234377	-332.4968872070313	1017.940002441406	-634.0755615234376	-522.4318237304689	1080.112548828125	-747.7565307617189	-532.9407958984376	1053.325927734375	-778.7246093750002	-533.1374511718751	1045.526245117188	-722.9951171875001	-234.0393829345704	783.444274902344	-944.0152587890627	-163.5911560058594	741.7799682617189	-922.9538574218752	-136.3930358886719	766.9675292968751	-889.4313964843752	-156.51513671875	683.1559448242189	-915.9335937500002	-123.8390350341797	632.3427124023439	-915.7318115234377	-128.8004302978516	622.9124145507814	-776.5610351562502	31.91111564636231	500.7473754882814	-863.8865356445315	9.564871788024904	433.2309875488282	-916.0166625976565	46.44617080688477	452.216522216797	-895.1301879882815	94.38307952880861	390.6700134277345	-860.9297485351565	114.0371704101563	257.9416503906251	-884.070739746094	110.3259811401367	284.3589477539063	-800.3676757812502	87.9418411254883	197.5658721923829	-839.343933105469	272.0173950195313	325.6528320312501	-806.1904296875002	271.3712768554688	326.4463806152344	-844.6318969726565	255.6631011962891	286.1145019531251	-896.833923339844	-384.7025146484376	776.4307861328127	-586.4451293945314	-338.2209472656251	729.6126708984376	-585.1691284179689	-305.4468688964844	738.5490722656251	-584.6935424804689	-344.8055419921876	650.7641601562501	-612.4708862304689	-301.5659484863282	508.7091064453126	-632.6431274414064	-282.8432922363282	511.2033996582032	-761.2274780273439	-267.7845458984376	352.7798767089844	-734.1658325195314	-304.2607116699219	268.1151123046876	-678.3393554687501	-276.9732666015626	267.6460571289063	-718.4339599609376	-299.2239074707032	229.3629608154297	-756.6105346679689	-365.2768859863282	99.49268341064456	-719.9143676757814	-352.1942749023438	132.1672668457032	-803.7498168945315	-433.535369873047	83.93690490722658	-781.299255371094	-208.7326354980469	56.42852020263673	-785.151306152344	-210.9433593750001	51.59457397460939	-744.2555541992189	-256.6256103515626	33.16179656982423	-698.7283325195314	
335	1.67	-233.4696807861329	1672.365356445313	-778.0071411132815	-368.0502624511719	1644.251708984375	-806.1328125000002	-394.7128295898439	1624.559448242188	-673.5942382812501	-428.8071899414064	1527.420043945313	-737.5180053710939	-502.2297973632814	1195.847290039063	-743.0086669921876	-310.5054321289063	1435.540649414063	-739.0064086914064	-333.8558349609376	1474.617309570313	-890.1334228515627	-259.7336425781251	1380.958862304688	-977.5150146484377	-216.1746673583985	1396.691284179688	-957.210632324219	-201.2744293212891	1344.83056640625	-986.0419921875002	-101.4877014160157	1306.058227539063	-988.4373779296877	-113.0177764892578	1252.656860351563	-941.331481933594	156.0150756835938	1303.760131835938	-870.0660400390627	160.5326080322266	1297.961303710938	-944.0108032226565	238.7134094238282	1305.10693359375	-862.8627929687502	-320.4372253417969	1465.688354492188	-588.7161865234376	-237.1124725341797	1349.930908203125	-496.735809326172	-195.657455444336	1367.720825195313	-513.1403808593751	-177.8757476806641	1314.609008789063	-492.3009338378907	-88.55844116210939	1286.937622070313	-494.2998962402345	-100.7800979614258	1233.633422851563	-557.0710449218751	158.1667633056641	1295.897094726563	-630.7379150390626	172.4490203857422	1302.551879882813	-554.9149780273439	247.3504486083985	1313.66357421875	-639.5858154296876	-343.4960937500001	1047.604614257813	-884.831481933594	-333.0812988281251	1017.433654785156	-634.1386108398439	-522.9464111328126	1079.59521484375	-747.7753906250001	-533.4575195312501	1052.7607421875	-778.7489013671877	-533.6652221679689	1045.030639648438	-723.0727539062501	-234.0098419189454	783.3630371093752	-943.9360961914065	-163.4898223876953	741.8256225585939	-922.8995361328127	-136.3297729492188	767.1016235351564	-889.3724365234377	-156.1702423095703	683.2514038085939	-915.8162841796877	-123.5437850952149	632.4023437500001	-915.605651855469	-128.4195556640625	623.0962524414064	-776.524108886719	32.50903701782227	501.1125793457032	-863.7066650390627	10.5346040725708	433.6698303222657	-915.9283447265627	47.05139541625977	452.652557373047	-894.9625244140627	95.04061126708986	391.1242980957032	-860.8272094726565	114.8532409667969	258.3988647460938	-883.9097290039065	111.1662979125977	284.7919006347657	-800.1106567382815	88.88475036621095	197.9695434570313	-839.2324218750002	272.7143859863282	326.3378295898438	-806.0305175781252	272.3777160644532	327.4013061523438	-844.2822875976565	256.3240356445313	286.8796997070313	-896.6190185546877	-384.7471313476564	776.0615844726565	-586.3521118164064	-338.2090148925782	729.4243164062501	-584.9454345703126	-305.4362182617188	738.2680664062501	-584.3786010742189	-344.5103759765626	650.4826660156251	-612.1614990234376	-301.0136718750001	508.494842529297	-632.2243652343751	-281.9546508789063	510.982147216797	-760.6443481445314	-267.3048706054688	352.5549926757813	-733.6997680664064	-304.0999755859376	267.9466247558594	-677.9982299804689	-276.6982421875001	267.4710388183594	-718.0388793945314	-299.0496215820313	229.2606506347657	-756.3097534179689	-365.2853393554688	99.37934875488284	-719.7713623046876	-352.1295166015626	132.2090454101563	-803.5081787109377	-433.5439453125001	83.94474029541017	-781.2423095703127	-208.9177246093751	56.49530029296876	-784.4719238281252	-210.9639129638672	51.60511398315431	-744.2124023437501	-256.6280517578126	33.10691452026368	-698.7095947265626	
336	1.675	-233.3975677490235	1671.501342773438	-777.8570556640627	-367.8173217773438	1643.626098632813	-806.0985107421877	-394.4927978515626	1624.015502929688	-673.5500488281251	-428.6004638671876	1526.866821289063	-737.4494628906251	-502.5537414550782	1195.462646484375	-743.0498657226564	-310.4606628417969	1434.71484375	-738.9354248046876	-333.7012634277344	1473.96484375	-889.992614746094	-259.5963745117188	1380.4443359375	-977.4805908203127	-216.0298767089844	1396.053100585938	-957.0941162109377	-201.0970306396485	1344.23193359375	-985.8340454101565	-101.3960342407227	1305.40625	-988.2507324218752	-112.8428268432617	1252.103759765625	-941.224304199219	155.8193664550782	1303.194091796875	-869.9141845703127	160.6001892089844	1297.389526367188	-943.8354492187502	239.246810913086	1304.55029296875	-862.7448730468752	-320.3907165527344	1465.04638671875	-588.6539916992189	-237.1271667480469	1349.392211914063	-496.5721130371095	-195.6221160888672	1367.162231445313	-513.0175781250001	-177.9274139404297	1313.996337890625	-492.1453857421876	-88.50025939941408	1286.412231445313	-494.1055908203126	-100.7136764526367	1233.016357421875	-556.8358154296876	156.9521789550782	1298.776245117188	-630.0363769531251	172.410873413086	1301.9296875	-554.5676879882814	247.4045562744141	1313.076416015625	-639.3707275390626	-344.0414733886719	1047.04541015625	-884.886901855469	-333.7001953125001	1017.000793457031	-634.1420898437501	-523.3485717773439	1079.08544921875	-747.8071899414064	-533.9928588867189	1052.20751953125	-778.7864990234377	-534.1503906250001	1044.542358398438	-723.1667480468751	-233.9652252197266	783.2298583984377	-943.9477539062502	-163.3970642089844	741.8719482421876	-922.7814941406252	-136.2455444335938	767.2120361328126	-889.2969970703127	-155.8799285888672	683.3327026367189	-915.7543945312502	-123.1346206665039	632.5523681640626	-915.5722656250002	-128.1383666992188	623.2518920898439	-776.4030761718752	33.05278015136719	501.5080566406251	-863.495056152344	11.3351469039917	434.0480041503907	-915.7318115234377	47.88412475585938	453.096405029297	-895.3931274414065	95.80010986328126	391.6021728515626	-860.6699829101565	116.006576538086	258.9418334960938	-883.771179199219	111.9783401489258	285.2746582031251	-800.097351074219	89.91442108154298	198.4305419921876	-839.243103027344	273.5568237304688	327.0552673339844	-805.7961425781252	273.1374206542969	328.1879577636719	-844.1595458984377	257.0860900878907	287.5080566406251	-896.4436035156252	-384.8685607910157	775.6413574218752	-586.1504516601564	-338.1825866699219	729.0045166015626	-584.8059082031251	-305.3967895507813	737.8768920898439	-584.6211547851564	-344.1649169921876	650.1976318359376	-611.8204345703126	-300.4636840820313	508.297332763672	-631.7792358398439	-281.1904907226563	510.7185363769532	-760.0436401367189	-266.8478393554688	352.3209838867188	-733.2691040039064	-303.8991699218751	267.8028259277344	-677.7052001953126	-276.4588623046876	267.2813720703126	-717.6472778320314	-298.7868347167969	229.1813964843751	-755.9500122070314	-365.2631530761719	99.2669372558594	-719.6356201171876	-352.0450744628907	132.3032836914063	-803.3770141601565	-433.5711975097657	83.9262161254883	-781.195007324219	-208.8995361328126	56.60174942016603	-784.326599121094	-210.9735412597657	51.57598876953126	-744.2147216796876	-256.6155700683594	33.0653190612793	-698.6771850585939	
